<svg width="23" height="24" viewBox="0 0 23 24" fill="none" xmlns="http://www.w3.org/2000/svg">
<rect width="23" height="24" fill="#1E1E1E"/>
<g clip-path="url(#clip0_22_299)">
<rect width="1496" height="3978.43" transform="translate(-452 -569.712)" fill="white"/>
<rect x="-452" y="-569.712" width="1496" height="782.595" fill="#F3F9FF00"/>
<rect x="-21.4325" y="-18.5301" width="148.665" height="58.905" rx="4.2075" stroke="#39A7FF" stroke-width="0.935"/>
<path d="M2.6438 6.94871C2.6438 14.6943 8.92326 20.9737 16.6688 20.9737H18.7725C19.3305 20.9737 19.8656 20.7521 20.2601 20.3575C20.6547 19.963 20.8763 19.4279 20.8763 18.87V17.5871C20.8763 17.1047 20.5481 16.6839 20.0797 16.5671L15.9442 15.5329C15.5328 15.4301 15.1008 15.5844 14.8474 15.9228L13.9405 17.1318C13.6768 17.4834 13.2215 17.6386 12.8091 17.4871C11.2784 16.9243 9.88832 16.0356 8.73512 14.8824C7.58192 13.7292 6.69317 12.3391 6.13041 10.8084C5.97894 10.3961 6.13415 9.94071 6.48571 9.67704L7.69467 8.77009C8.03407 8.51671 8.18741 8.0838 8.08456 7.67334L7.05045 3.53783C6.99355 3.31034 6.86226 3.10839 6.67744 2.96406C6.49262 2.81972 6.26487 2.74129 6.03037 2.74121H4.74755C4.1896 2.74121 3.6545 2.96286 3.25997 3.35739C2.86544 3.75191 2.6438 4.28701 2.6438 4.84496V6.94871Z" stroke="#39A7FF" stroke-width="1.4025" stroke-linecap="round" stroke-linejoin="round"/>
</g>
<defs>
<clipPath id="clip0_22_299">
<rect width="1496" height="3978.43" fill="white" transform="translate(-452 -569.712)"/>
</clipPath>
</defs>
</svg>
